<?xml version="1.0" standalone="no"?>
<!DOCTYPE svg PUBLIC "-//W3C//DTD SVG 1.1//EN" "http://www.w3.org/Graphics/SVG/1.1/DTD/svg11.dtd" >
<svg>
<metadata>
Created by FontForge 20090914 at Wed Jun 16 18:04:34 2021
 By www-data
&#194;&#169; 2008 Bernd Montag - feel free to distribute - feel free to use personal and commercial - read attached textfile for restrictions
</metadata>
<defs>
<font id="SansationLight" horiz-adv-x="405" >
  <font-face 
    font-family="Sansation"
    font-weight="300"
    font-stretch="normal"
    units-per-em="2048"
    panose-1="2 0 0 0 0 0 0 0 0 0"
    ascent="1638"
    descent="-410"
    x-height="1050"
    cap-height="1430"
    bbox="-450 -434 1990 1836"
    underline-thickness="90"
    underline-position="-119"
    unicode-range="U+0020-U+F002"
  />
<missing-glyph horiz-adv-x="1124" 
d="M0 0v1280h1024v-1280h-1024zM32 32h960v1216h-960v-1216z" />
    <glyph glyph-name=".notdef" horiz-adv-x="1124" 
d="M0 0v1280h1024v-1280h-1024zM32 32h960v1216h-960v-1216z" />
    <glyph glyph-name="space" unicode=" " horiz-adv-x="485" 
 />
    <glyph glyph-name="exclam" unicode="!" 
d="M105 1430v-1060h-105v1060h105zM105 105v-105h-105v105h105z" />
    <glyph glyph-name="quotedbl" unicode="&#x22;" horiz-adv-x="605" 
d="M290 1430l30 -435h55l30 435h-115zM0 1430l30 -435h55l30 435h-115z" />
    <glyph glyph-name="numbersign" unicode="#" horiz-adv-x="1883" 
d="M633 906l-110 -438h457l110 438h-457zM303 -5l99 379h-392l20 94h392l109 438h-401l20 94h402l110 425h100l-110 -425h458l112 430h100l-111 -430h482l-20 -94h-482l-109 -438h491l-20 -94h-492l-100 -379h-100l100 379h-458l-100 -379h-100z" />
    <glyph glyph-name="dollar" unicode="$" horiz-adv-x="1050" 
d="M30 240l-0.000976562 100c116.667 -40 238 -60 364 -60c207.333 0 311 70 311 210c0 113.333 -75 170 -225 170h-150c-233.333 0 -350 93.333 -350 280s130 286.667 390 300v190h95v-190c126.667 -6.66699 231.667 -23.334 315 -50.001v-100c-116.667 40 -231 60 -343 60
c-234.667 0 -352 -70 -352 -210c0 -113.333 81.667 -170 245 -170h150c233.333 0 350 -93.333 350 -280s-121.667 -286.667 -365 -300v-190h-95v190c-143.333 6.66699 -256.666 23.334 -339.999 50.001z" />
    <glyph glyph-name="percent" unicode="%" horiz-adv-x="1342" 
d="M125 0h-125l1017 1430h125zM278 1005c116 0 174 59 174 177c0 116 -58 174 -174 174c-118.667 0 -178 -58 -178 -174c0 -118 59.333 -177 178 -177zM0 1180c0 173.333 92.667 260 278 260c182.667 0 274 -86.667 274 -260c0 -172.667 -91.333 -259 -274 -259
c-185.333 0 -278 86.333 -278 259zM868 74c116 0 174 59 174 177c0 116 -58 174 -174 174c-118.667 0 -178 -58 -178 -174c0 -118 59.333 -177 178 -177zM590 249c0 173.333 92.667 260 278 260c182.667 0 274 -86.667 274 -260c0 -172.667 -91.333 -259 -274 -259
c-185.333 0 -278 86.333 -278 259z" />
    <glyph glyph-name="ampersand" unicode="&#x26;" horiz-adv-x="1275" 
d="M223 727c-148.667 -57.333 -223 -168.333 -223 -333c0 -264.667 165 -397 495 -397c345.333 0 518 164.333 518 493v190h162v90h-172l-22 172h-73v-172h-468c-223.333 0 -335 93.333 -335 280c0 193.333 136 290 408 290c114.667 0 233.667 -16.667 357 -50v90
c-116.667 33.333 -236.667 50 -360 50c-340 0 -510 -128.333 -510 -385c-0 -168.667 74.333 -274.667 223 -318zM908 680v-188c0 -268 -140.667 -402 -422 -402c-254 0 -381 103 -381 309c0 187.333 112.333 281 337 281h466z" />
    <glyph glyph-name="quotesingle" unicode="'" horiz-adv-x="315" 
d="M0 1430l30 -435h55l30 435h-115z" />
    <glyph glyph-name="parenleft" unicode="(" horiz-adv-x="480" 
d="M200 1430c-133.333 -301.333 -200 -603 -200 -905s66.667 -603.667 200 -905h105c-133.333 301.333 -200 603 -200 905s66.667 603.667 200 905h-105z" />
    <glyph glyph-name="parenright" unicode=")" horiz-adv-x="480" 
d="M-1 1430c133.333 -301.333 200 -603 200 -905s-66.667 -603.667 -200 -905h105c133.333 301.333 200 603 200 905s-66.667 603.667 -200 905h-105z" />
    <glyph glyph-name="asterisk" unicode="*" horiz-adv-x="810" 
d="M227 1430h156l-30 -232l209 101l48 -147l-228 -43l159 -170l-123 -92l-113 205l-113 -204l-124 89l161 171l-230 42l48 150l211 -103z" />
    <glyph glyph-name="plus" unicode="+" horiz-adv-x="950" 
d="M0 570v-90h330v-330h100v330h320v90h-320v330h-100v-330h-330z" />
    <glyph glyph-name="comma" unicode="," horiz-adv-x="455" 
d="M150 185l-150 -435h105l150 435h-105z" />
    <glyph glyph-name="hyphen" unicode="-" horiz-adv-x="700" 
d="M500 570v-90h-500v90h500z" />
    <glyph glyph-name="hyphen" unicode="&#x2010;" horiz-adv-x="700" 
d="M500 570v-90h-500v90h500z" />
    <glyph glyph-name="period" unicode="." horiz-adv-x="335" 
d="M0 125v-125h135v125h-135z" />
    <glyph glyph-name="slash" unicode="/" horiz-adv-x="965" 
d="M115 0h-115l725 1430h115z" />
    <glyph glyph-name="zero" unicode="0" horiz-adv-x="1375" 
d="M618 80c328 0 492 213 492 639c0 420.667 -164 631 -492 631c-335.333 0 -503 -210.333 -503 -631c0 -426 167.667 -639 503 -639zM0 713c0 484.667 206 727 618 727c404.667 0 607 -242.333 607 -727c0 -482 -202.333 -723 -607 -723c-390.667 0 -596.667 241 -618 723z
" />
    <glyph glyph-name="one" unicode="1" horiz-adv-x="585" 
d="M105 0v1430l-255 -70v-59h150v-1301h105z" />
    <glyph glyph-name="two" unicode="2" horiz-adv-x="1180" 
d="M0 0v90c583.333 404.667 875 714.667 875 930c0 220 -140 330 -420 330c-146.667 0 -285 -36.667 -415 -110v100c130 66.667 268.333 100 415 100c350 0 525 -140 525 -420c0 -246.667 -274.667 -556.667 -824 -930h824v-90h-980z" />
    <glyph glyph-name="three" unicode="3" horiz-adv-x="1115" 
d="M0 1380c133.333 40 266.666 59.999 399.999 59.999c343.333 0 515 -130 515 -390c0 -170.667 -79.333 -279 -238 -325c158.667 -43.333 238 -151.666 238 -324.999c0 -273.333 -171.667 -410 -515 -410c-133.333 0 -266.666 20 -399.999 60v100
c133.333 -46.667 266.666 -70 399.999 -70c273.333 0 410 106.667 410 320c0 186.667 -110.667 280 -332 280h-328v90h325c223.333 0 335 93.333 335 280c0 200 -136.667 300 -410 300c-133.333 0 -266.666 -23.333 -399.999 -70v100z" />
    <glyph glyph-name="four" unicode="4" horiz-adv-x="1125" 
d="M828 0h-105v420h-722v90l395 920h104l-386 -920h609v588h105v-588l148 -46v-44h-148v-420z" />
    <glyph glyph-name="five" unicode="5" horiz-adv-x="1175" 
d="M50 1430h854v-80h-766l-44 -512c131.333 14.667 243.333 22 336 22c380 0 570 -133.333 570 -400c0 -313.333 -183.333 -470 -550 -470c-153.333 0 -296.666 20 -429.999 60v100c133.333 -46.667 276.666 -70 429.999 -70c296.667 0 445 126.667 445 380
c0 213.333 -155 320 -465 320c-156.667 0 -300 -16.667 -430 -50z" />
    <glyph glyph-name="six" unicode="6" horiz-adv-x="1240" 
d="M0 530c0 310.667 169.333 625 508 943l66 -77c-194.667 -164 -336 -360.333 -424 -589c127.333 42 249.333 63 366 63c349.333 0 524 -133.333 524 -400c0 -320 -184.333 -480 -553 -480c-324.667 0 -487 180 -487 540zM496 80c295.333 0 443 130 443 390
c0 206.667 -144 310 -432 310c-136 0 -264 -22.667 -384 -68c-18.667 -66.667 -28 -122 -28 -166c0 -310.667 133.667 -466 401 -466z" />
    <glyph glyph-name="seven" unicode="7" horiz-adv-x="1125" 
d="M0 1430h950v-90l-572 -1340h-131l592 1340h-839v90z" />
    <glyph glyph-name="eight" unicode="8" horiz-adv-x="1240" 
d="M0 424c0 162 84 269 252 321c-141.333 56.667 -212 167.667 -212 333c0 244 160 366 480 366s480 -122 480 -366c0 -165.333 -72.333 -276.333 -217 -333c171.333 -52 257 -159 257 -321c0 -289.333 -173.333 -434 -520 -434s-520 144.667 -520 434zM895 1058
c0 194.667 -127.667 292 -383 292c-244.667 0 -367 -97.333 -367 -292c0 -178.667 126.667 -268 380 -268c246.667 0 370 89.333 370 268zM935 418c0 188 -141 282 -423 282c-271.333 0 -407 -94 -407 -282c0 -225.333 140 -338 420 -338c273.333 0 410 112.667 410 338z
" />
    <glyph glyph-name="nine" unicode="9" horiz-adv-x="1190" 
d="M1040 904c0 -310.667 -169.333 -625 -508 -943l-66 77c208 184 346 377 414 579c-135.333 -62 -264 -93 -386 -93c-329.333 0 -494 146.667 -494 440c0 320 177.667 480 533 480c338 0 507 -180 507 -540zM524 1354c-282 0 -423 -130 -423 -390
c0 -226.667 130.667 -340 392 -340c176 0 317.333 39.667 424 119c12 52.667 18 101 18 145c0 310.667 -137 466 -411 466z" />
    <glyph glyph-name="colon" unicode=":" horiz-adv-x="385" 
d="M0 1050v-125h135v125h-135zM0 125v-125h135v125h-135z" />
    <glyph glyph-name="semicolon" unicode=";" horiz-adv-x="525" 
d="M150 185l-150 -435h105l150 435h-105zM140 1050v-125h135v125h-135z" />
    <glyph glyph-name="less" unicode="&#x3c;" horiz-adv-x="1100" 
d="M0 470v110l900 420v-110l-813 -369l813 -361v-110z" />
    <glyph glyph-name="equal" unicode="=" horiz-adv-x="950" 
d="M0 420v-90h750v90h-750zM0 720v-90h750v90h-750z" />
    <glyph glyph-name="greater" unicode="&#x3e;" horiz-adv-x="1100" 
d="M900 470v110l-900 420v-110l813 -369l-813 -361v-110z" />
    <glyph glyph-name="question" unicode="?" horiz-adv-x="1115" 
d="M190 105v-105h105v105h-105zM0 1380c140 33.333 273.333 50 400 50c343.333 0 515 -130 515 -390s-165.667 -390 -497 -390h-123v-280h-105v370h225c263.333 0 395 100 395 300s-136.667 300 -410 300c-126.667 0 -260 -16.667 -400 -50v90z" />
    <glyph glyph-name="at" unicode="@" horiz-adv-x="2150" 
d="M445 327c0 195.333 142 293 426 293c104.667 0 222.667 -6.66699 354 -20v129c0 154 -121 231 -363 231c-108 0 -218.667 -16.667 -332 -50v90c113.333 33.333 224 50 332 50c312 0 468 -112 468 -336v-626c0 -98.667 33.333 -148 100 -148c190 0 285 200 285 600
c0 540 -268.667 810 -806 810c-556 0 -834 -270 -834 -810c0 -553.333 255 -830 765 -830v-90c-580 0 -870 306.667 -870 920c0 600 308 900 924 900c617.333 0 926 -300 926 -900c0 -460 -142.333 -690 -427 -690c-107.333 0 -161 74.667 -161 224
c-138 -49.333 -268.667 -74 -392 -74c-263.333 0 -395 109 -395 327zM871 530c-214 0 -321 -66.667 -321 -200c0 -160 96.667 -240 290 -240c128 0 256.333 27.333 385 82v338c-126.667 13.333 -244.667 20 -354 20z" />
    <glyph glyph-name="A" unicode="A" horiz-adv-x="1472" 
d="M0 0l647 1430h125l650 -1430h-125l-210 480h-608l31 90h537l-344 778l-591 -1348h-112z" />
    <glyph glyph-name="B" unicode="B" horiz-adv-x="1310" 
d="M0 0v1430h610c272 0 408 -111 408 -333c0 -162.667 -98.667 -279 -296 -349c209.333 -35.333 314 -147 314 -335c0 -275.333 -149 -413 -447 -413h-589zM578 90c230.667 0 346 106.667 346 320c0 188.667 -144.333 283 -433 283h-80v71c333.333 30 500 138.667 500 326
c0 166.667 -102.667 250 -308 250h-498v-1250h473z" />
    <glyph glyph-name="C" unicode="C" horiz-adv-x="1385" 
d="M1150 140c-130 -40 -256.667 -60 -380 -60c-443.333 0 -665 218.333 -665 655c0 410 221.667 615 665 615c123.333 0 250 -20 380 -60v90c-130 40 -263.333 60 -400 60c-500 0 -750 -235 -750 -705c0 -496.667 250 -745 750 -745c136.667 0 270 20 400 60v90z" />
    <glyph glyph-name="D" unicode="D" horiz-adv-x="1500" 
d="M570 90c376.667 0 565 221.333 565 664c0 390.667 -188.333 586 -565 586h-465v-1250h465zM0 0v1430h580c446.667 0 670 -225.333 670 -676c0 -502.667 -223.333 -754 -670 -754h-580z" />
    <glyph glyph-name="E" unicode="E" horiz-adv-x="1228" 
d="M0 1430v-1430h953v90h-848v590h800v90h-800v570h834v90h-939z" />
    <glyph glyph-name="F" unicode="F" horiz-adv-x="1239" 
d="M0 1430v-1430h105v680h800v90h-800v570h834v90h-939z" />
    <glyph glyph-name="G" unicode="G" horiz-adv-x="1385" 
d="M1150 650h-105v-526c-108 -29.333 -206 -44 -294 -44c-430.667 0 -646 218.333 -646 655c0 410 221.667 615 665 615c123.333 0 250 -20 380 -60v90c-130 40 -263.333 60 -400 60c-500 0 -750 -235 -750 -705c0 -496.667 255.667 -745 767 -745c133.333 0 261 22 383 66
v594z" />
    <glyph glyph-name="H" unicode="H" horiz-adv-x="1485" 
d="M0 0v1430h105v-660h975v660h105v-1430h-105v680h-975v-680h-105z" />
    <glyph glyph-name="I" unicode="I" 
d="M0 1430v-1430h105v1430h-105z" />
    <glyph glyph-name="J" unicode="J" horiz-adv-x="630" 
d="M50 1430v-1018c0 -214.667 -116.667 -322 -350 -322v-90c303.333 -0 455 137.333 455 412v1018h-105z" />
    <glyph glyph-name="K" unicode="K" horiz-adv-x="1263" 
d="M0 1430v-1430h105v1430h-105zM822 1430l-622 -620v-112l663 -698h177l-745 763l661 667h-134z" />
    <glyph glyph-name="L" unicode="L" horiz-adv-x="1183" 
d="M0 1430v-1430h933v90h-828v1340h-105z" />
    <glyph glyph-name="M" unicode="M" horiz-adv-x="1750" 
d="M0 0v1430h105l645 -1307l605 1307h95v-1430h-95v1237l-568 -1237h-86l-606 1247v-1247h-95z" />
    <glyph glyph-name="N" unicode="N" horiz-adv-x="1485" 
d="M0 0v1430h135l955 -1242v1242h95v-1430h-85l-1005 1312v-1312h-95z" />
    <glyph glyph-name="O" unicode="O" horiz-adv-x="1625" 
d="M718 80c394.667 0 592 213 592 639c0 420.667 -197.333 631 -592 631c-402 0 -603 -210.333 -603 -631c0 -426 201 -639 603 -639zM0 713c0 484.667 239.333 727 718 727c471.333 0 707 -242.333 707 -727c0 -482 -235.667 -723 -707 -723c-478.667 0 -718 241 -718 723z
" />
    <glyph glyph-name="P" unicode="P" horiz-adv-x="1243" 
d="M0 0v1430h610c272 0 408 -114.333 408 -343c0 -258 -189.667 -417.667 -569 -479l-28 86c320 50 480 178.333 480 385c0 172 -102.667 258 -308 258h-488v-1337h-105z" />
    <glyph glyph-name="Q" unicode="Q" horiz-adv-x="1625" 
d="M718 90c394.667 0 592 209.667 592 629c0 420.667 -197.333 631 -592 631c-402 0 -603 -210.333 -603 -631c0 -419.333 201 -629 603 -629zM0 713c0 484.667 239.333 727.001 718 727.001c471.333 0 707 -242.333 707 -727c0 -398.667 -178.333 -637.334 -535 -716.001
l262 -300l-94 -68l-310 361c-498.667 0 -748 241 -748 723z" />
    <glyph glyph-name="R" unicode="R" horiz-adv-x="1215" 
d="M0 0v1430h590c258.667 0 388 -114.333 388 -343c0 -198 -140.333 -338.333 -421 -421l483 -666h-144l-475 663v71c293.333 43.333 440 158.333 440 345c0 172 -96 258 -288 258h-468v-1337h-105z" />
    <glyph glyph-name="S" unicode="S" horiz-adv-x="1310" 
d="M40 50v100c150 -46.667 315.333 -70 496 -70c292.667 0 439 116.667 439 350c0 160 -97.333 240 -292 240h-314c-266 0 -399 116.667 -399 350c0 280 191.667 420 575 420c160 0 315 -20 465 -60v-90c-150 40 -305 60 -465 60c-313.333 0 -470 -110 -470 -330
c0 -166.667 98 -250 294 -250h314c264.667 0 397 -113.333 397 -340c0 -293.333 -181.333 -440 -544 -440c-180.667 0 -346 20 -496 60z" />
    <glyph glyph-name="T" unicode="T" horiz-adv-x="1075" 
d="M-450 1430v-90h480v-1340h105v1340h490v90h-1075z" />
    <glyph glyph-name="U" unicode="U" horiz-adv-x="1450" 
d="M0 552v878h105v-878c0 -314.667 156.667 -472 470 -472s470 157.333 470 472v878h105v-878c0 -374.667 -191.667 -562 -575 -562s-575 187.333 -575 562z" />
    <glyph glyph-name="V" unicode="V" horiz-adv-x="1472" 
d="M1422 1430l-627 -1430h-165l-630 1430h115l601 -1349l594 1349h112z" />
    <glyph glyph-name="W" unicode="W" horiz-adv-x="1849" 
d="M150 1430h99l243 -1329l462 1329h105l475 -1342l275 1342h91l-289 -1430h-152l-452 1306l-453 -1306h-149z" />
    <glyph glyph-name="X" unicode="X" horiz-adv-x="1300" 
d="M0 1430h125l1125 -1430h-125zM125 0h-125l1125 1430h125z" />
    <glyph glyph-name="Y" unicode="Y" horiz-adv-x="1230" 
d="M0 1430h125l463 -830l477 830h115l-536 -930v-500h-105v500z" />
    <glyph glyph-name="Z" unicode="Z" horiz-adv-x="1250" 
d="M20 1430v-90h874l-894 -1260v-80h980v90h-847l867 1250v90h-980z" />
    <glyph glyph-name="bracketleft" unicode="[" horiz-adv-x="545" 
d="M0 1430v-1810h370v90h-275v1630h275v90h-370z" />
    <glyph glyph-name="backslash" unicode="\" horiz-adv-x="965" 
d="M0 1430h115l725 -1430h-115z" />
    <glyph glyph-name="bracketright" unicode="]" horiz-adv-x="545" 
d="M0 1430v-90h275v-1630h-275v-90h370v1810h-370z" />
    <glyph glyph-name="asciicircum" unicode="^" horiz-adv-x="1050" 
d="M400 1430h150l400 -730h-110l-369 673l-361 -673h-110z" />
    <glyph glyph-name="underscore" unicode="_" horiz-adv-x="1050" 
d="M0 0v-90h1000v90h-1000z" />
    <glyph glyph-name="grave" unicode="`" horiz-adv-x="400" 
d="M400 1355v-150l-400 150v150z" />
    <glyph glyph-name="a" unicode="a" horiz-adv-x="1135" 
d="M0 317c0 202 148.667 303 446 303c104.667 0 216 -6.66699 334 -20v129c0 154 -121 231 -363 231c-108 0 -218.667 -16.667 -332 -50v90c113.333 33.333 224 50 332 50c312 0 468 -112 468 -336v-714h-64l-34 74c-138 -49.333 -268.667 -74 -392 -74
c-263.333 0 -395 105.667 -395 317zM446 530c-227.333 0 -341.001 -70 -341.001 -210c0 -153.333 96.667 -230 290 -230c128 0 256.333 27.333 385 82v338c-113.333 13.333 -224.666 20 -333.999 20z" />
    <glyph glyph-name="b" unicode="b" horiz-adv-x="1188" 
d="M105 896c126.667 36 238 54 334 54c264.667 0 397 -132.333 397 -397c0 -306 -143.333 -459 -430 -459c-86.667 0 -187 9.66699 -301 29v773zM0 43c126 -28.667 264.334 -43 415.001 -43c348.667 0 523 182 523 546c0 336 -166 504 -498 504
c-90.667 0 -202.334 -16.667 -335.001 -50v430h-105v-1387z" />
    <glyph glyph-name="c" unicode="c" horiz-adv-x="1025" 
d="M850 120c-86.667 -20 -173.334 -30 -260.001 -30c-316.667 0 -475 151.667 -475 455c0 276.667 158.333 415 475 415c86.667 0 173.334 -10 260.001 -30v90c-86.667 20 -180 30 -280 30c-380 0 -570 -168.333 -570 -505c0 -363.333 190 -545 570 -545
c100 0 193.333 10 280 30v90z" />
    <glyph glyph-name="d" unicode="d" horiz-adv-x="1190" 
d="M835 896c-128 36 -240 54 -336 54c-258 0 -387 -132.333 -387 -397c0 -306 129 -459 387 -459c96 0 208 13 336 39v763zM940 63c-127.333 -42 -284.333 -63 -471 -63c-312.667 0 -469 182 -469 546c0 336 166 504 498 504c90.667 0 203 -16.667 337 -50v430h105v-1367z
" />
    <glyph glyph-name="e" unicode="e" horiz-adv-x="1126" 
d="M892 502h-787c0 -274.667 162 -412 486 -412c92.667 0 185.334 10 278.001 30v-90c-92.667 -20 -205.334 -30 -338.001 -30c-354 0 -531 179 -531 537c0 342 167.667 513 503 513c308 0 437.667 -182.667 389 -548zM105 596h688c16 244 -90.667 366 -320 366
c-233.333 0 -356 -122 -368 -366z" />
    <glyph glyph-name="f" unicode="f" horiz-adv-x="721" 
d="M0 -5v1106c0 254 130.667 381 392 381c86 0 164 -13.333 234 -40v-90c-66 26.667 -144.333 40 -235 40c-190.667 0 -286 -77.667 -286 -233v-109h395v-90h-395v-961z" />
    <glyph glyph-name="g" unicode="g" horiz-adv-x="1187" 
d="M832 154c-126 -36 -237 -54 -333 -54c-264.667 0 -397 144.333 -397 433c0 282 138.333 423 415 423c93.333 0 198.333 -8 315 -24v-778zM937 1007c-132.667 28.667 -270 43 -412 43c-350 0 -525 -173 -525 -519c0 -354 166 -531 498 -531c90.667 0 202 16.667 334 50
v-50c0 -193.333 -125.333 -290 -376 -290c-128.667 0 -244 16.667 -346 50v-90c100 -33.333 214.667 -50 344 -50c322 0 483 126.667 483 380v1007z" />
    <glyph glyph-name="h" unicode="h" horiz-adv-x="1185" 
d="M0 0l-0.000976562 1430h105v-494c162.667 76 308.334 114 437.001 114c228.667 0 343 -130.333 343 -391v-659h-105v702c0 169.333 -97.667 254 -293 254c-106 0 -233.333 -44.333 -382 -133v-823h-105z" />
    <glyph glyph-name="i" unicode="i" 
d="M0 1430v-100h105v100h-105zM0 1050v-1050h105v1050h-105z" />
    <glyph glyph-name="j" unicode="j" 
d="M0 1430v-100h105v100h-105zM0 1050v-969.999c-0 -198.667 -41.667 -326.334 -125 -383.001l75 -65c103.333 86.667 155 236 155 448v970h-105z" />
    <glyph glyph-name="k" unicode="k" horiz-adv-x="1101" 
d="M0 0l-0.000976562 1430h105v-462c128.667 54.667 266.334 82 413.001 82c248 0 372 -101 372 -303c0 -153.333 -110 -258 -330 -314l356 -433h-154l-334 435v63c238 27.333 357 110.666 357 249.999c0 141.333 -96.667 212 -290 212
c-128.667 0 -258.667 -31.333 -390 -94v-866h-105z" />
    <glyph glyph-name="l" unicode="l" 
d="M0 1430v-1430h105v1430h-105z" />
    <glyph glyph-name="m" unicode="m" horiz-adv-x="1805" 
d="M150 0l0.000976562 1050h75l11 -132c140.667 88 277 132 409 132c125.333 0 212.333 -48 261 -144c127.333 96 256.333 144 387 144c221.333 0 332 -116.333 332 -349v-701h-105v701c0 170 -82.667 255 -248 255c-125.333 0 -234.333 -45.333 -327 -136v-820h-105v718
c0 158.667 -75.333 238 -226 238c-130.667 0 -250.334 -45.333 -359.001 -136v-820h-105z" />
    <glyph glyph-name="n" unicode="n" horiz-adv-x="1185" 
d="M0 0v1050h75l13 -134c174 89.333 325.333 134 454 134c228.667 0 343 -110.333 343 -331v-719h-105v722c0 156 -87.667 234 -263 234c-126 0 -263.333 -44.333 -412 -133v-823h-105z" />
    <glyph glyph-name="o" unicode="o" horiz-adv-x="1200" 
d="M500 90c263.333 0 395 146.333 395 439c0 287.333 -131.667 431 -395 431s-395 -143.667 -395 -431c0 -292.667 131.667 -439 395 -439zM0 525c0 350 166.667 525 500 525s500 -175 500 -525c0 -349.333 -166.667 -524 -500 -524c-332 0 -498.667 174.667 -500 524z" />
    <glyph glyph-name="p" unicode="p" horiz-adv-x="1187" 
d="M105 154c126 -36 233.666 -54 322.999 -54c271.333 0 407 151 407 453c0 268.667 -135 403 -405 403c-93.333 0 -201.666 -8 -324.999 -24v-778zM-0.000976562 1007c139.333 28.667 283.333 43 432 43c336.667 0 505 -166.333 505 -499
c0 -367.333 -169.333 -551 -508 -551c-84 0 -192 16.667 -324 50v-430h-105v1387z" />
    <glyph glyph-name="q" unicode="q" horiz-adv-x="1187" 
d="M832 154c-126 -36 -237 -54 -333 -54c-264.667 0 -397 144.333 -397 433c0 282 138.333 423 415 423c93.333 0 198.333 -8 315 -24v-778zM937 1007c-132.667 28.667 -270 43 -412 43c-350 0 -525 -173 -525 -519c0 -354 166 -531 498 -531c90.667 0 202 16.667 334 50
v-430h105v1387z" />
    <glyph glyph-name="r" unicode="r" horiz-adv-x="560" 
d="M0 0l-0.000976562 1050h75l13 -134c58.667 89.333 152.667 134 282 134v-84c-125.333 0 -213.666 -44.333 -264.999 -133v-833h-105z" />
    <glyph glyph-name="s" unicode="s" horiz-adv-x="1050" 
d="M30 50v100c116.667 -40 238 -60 364 -60c220.667 0 331 70 331 210c0 113.333 -81.667 170 -245 170h-170c-220 0 -330 93.333 -330 280c0 200 145.667 300 437 300c125.333 0 246.333 -16.667 363 -50v-100c-116.667 40 -237.667 60 -363 60
c-221.333 0 -332 -70 -332 -210c0 -120 75 -180 225 -180h170c233.333 0 350 -90 350 -270c0 -200 -145.333 -300 -436 -300c-126 0 -247.333 16.667 -364 50z" />
    <glyph glyph-name="t" unicode="t" horiz-adv-x="550" 
d="M0 1220h66l20 -170h264v-90h-245v-663c0 -138 52.333 -207 157 -207h88v-90h-86c-176 -0 -264 94.333 -264 283v937z" />
    <glyph glyph-name="u" unicode="u" horiz-adv-x="1185" 
d="M885 1050v-1050h-77l-12 134c-174 -89.333 -325.333 -134 -454 -134c-228 -0 -342 130.333 -342 391v659h105v-662c0 -196 97.333 -294 292 -294c106 0 233.667 44.333 383 133v823h105z" />
    <glyph glyph-name="v" unicode="v" horiz-adv-x="1010" 
d="M0 1050h120l384 -959l386 959h120l-447 -1050h-122z" />
    <glyph glyph-name="w" unicode="w" horiz-adv-x="1519" 
d="M1 1050h107l226 -923l333 923h77l342 -903l231 903h103l-274 -1050h-109l-331 895l-326 -895h-113z" />
    <glyph glyph-name="x" unicode="x" horiz-adv-x="990" 
d="M0 1050h125l815 -1050h-125zM125 0h-125l815 1050h125z" />
    <glyph glyph-name="y" unicode="y" horiz-adv-x="1061" 
d="M0 1050h121l390 -948l384 948h116l-456 -1081c-77.333 -190.667 -193.333 -309.667 -348 -357l-31 84c121.333 44 214 140 278 288z" />
    <glyph glyph-name="z" unicode="z" horiz-adv-x="990" 
d="M20 1050h770v-90l-657 -870h637v-90h-770v90l665 870h-645v90z" />
    <glyph glyph-name="braceleft" unicode="{" horiz-adv-x="570" 
d="M340 1430c-86.667 -117.333 -130 -276.666 -130 -477.999c0 -254.667 -70 -382 -210 -382v-90c140 0 210 -127.333 210 -382c0 -201.333 43.333 -360.666 130 -477.999h105c-86.667 117.333 -130 276.666 -130 477.999c0 234.667 -63.333 377 -190 427
c126.667 50 190 192.333 190 427c0 201.333 43.333 360.666 130 477.999h-105z" />
    <glyph glyph-name="bar" unicode="|" 
d="M0 1430v-1810h105v1810h-105z" />
    <glyph glyph-name="braceright" unicode="}" horiz-adv-x="570" 
d="M-1 1430c86.667 -117.333 130 -276.666 130 -477.999c0 -234.667 63.333 -377 190 -427c-126.667 -50 -190 -192.333 -190 -427c0 -201.333 -43.333 -360.666 -130 -477.999h105c86.667 117.333 130 276.666 130 477.999c0 254.667 70 382 210 382v90
c-140 0 -210 127.333 -210 382c0 201.333 -43.333 360.666 -130 477.999h-105z" />
    <glyph glyph-name="asciitilde" unicode="~" horiz-adv-x="950" 
d="M365 570c173.333 -60 301.666 -53.333 384.999 20v-90c-70 -73.333 -191.667 -80 -365 -20s-301.666 53.333 -384.999 -20v90c70 73.333 191.667 80 365 20z" />
    <glyph glyph-name="nonbreakingspace" unicode="&#xa0;" horiz-adv-x="498" 
 />
    <glyph glyph-name="exclamdown" unicode="&#xa1;" 
d="M0 -380v1060h105v-1060h-105zM0 945v105h105v-105h-105z" />
    <glyph glyph-name="cent" unicode="&#xa2;" horiz-adv-x="1050" 
d="M850 240c-93.333 -33.333 -175 -50 -245 -50v-190h-95v190c-340 28 -510 209.667 -510 545c0 300.667 170 469 510 505v190h95v-190c70 0 151.667 -16.667 245 -50v-90c-86.667 33.333 -173.334 50 -260.001 50c-323.333 0 -485 -138.333 -485 -415
c0 -303.333 161.667 -455 485 -455c86.667 0 173.334 16.667 260.001 50v-90z" />
    <glyph glyph-name="sterling" unicode="&#xa3;" horiz-adv-x="1217" 
d="M65 62c124 50 185.998 166.997 185.998 350.997c0 78 -25.667 175 -77 291s-77 223.667 -77 323c0 275.333 186 413 558 413c180 0 322.333 -33.333 427 -100v-120c-105.333 86.667 -250 130 -434 130c-289.333 0 -434 -107 -434 -321c0 -96 18.333 -182.333 55 -259h446
v-90h-414c39.333 -109.333 59 -197.333 59 -264c0 -91.333 -21.333 -190.666 -64 -297.999c114.667 12 241.834 -1 381.501 -39s274.5 -11 404.5 81v-110c-125.333 -87.333 -287.166 -106.166 -485.499 -56.499s-375.5 41.834 -531.5 -23.499v92z" />
    <glyph glyph-name="currency" unicode="&#xa4;" horiz-adv-x="1139" 
d="M116 756l-116 120l109 112l125 -121c72 45.333 152.667 68 242 68c82.667 0 157.667 -22.667 225 -68l128 121l110 -112l-118 -120c38.667 -55.333 58 -132.333 58 -231c0 -92.667 -22.667 -170 -68 -232l128 -120l-110 -112l-128 123c-72 -40 -149.667 -60 -233 -60
c-82.667 0 -163.667 20 -243 60l-116 -123l-109 112l116 120c-38 68.667 -57 146 -57 232c0 91.333 19 168.333 57 231zM222 529c0 -164 81.667 -246 245 -246s245 82 245 246c0 162.667 -81.667 244 -245 244s-245 -81.333 -245 -244z" />
    <glyph glyph-name="yen" unicode="&#xa5;" horiz-adv-x="1250" 
d="M0 1430h125l442 -661l448 661h135l-493 -700h373v-90h-416v-171h416v-90h-416v-379h-105v379h-389v90h389v171h-389v90h347z" />
    <glyph glyph-name="brokenbar" unicode="&#xa6;" horiz-adv-x="201" 
 />
    <glyph glyph-name="section" unicode="&#xa7;" horiz-adv-x="1050" 
d="M50 40v99.999c116.667 -40 238 -60 364 -60c220.667 0 331 66.667 331 200c0 113.333 -91.667 170 -275 170h-110c-240 0 -360 90 -360 270c0 98.667 54 167.334 162 206.001c-108 33.333 -162 108 -162 224c-0 193.333 152.333 290 457 290
c112 0 226.333 -16.667 343 -50v-100c-116.667 40 -231 60 -343 60c-234.667 0 -352 -66.667 -352 -200c0 -113.333 85 -170 255 -170h110c253.333 0 380 -89 380 -267c0 -106.667 -55 -178 -165 -214c110 -41.333 165 -114.333 165 -219
c0 -193.333 -145.333 -290 -436 -290c-126 0 -247.333 16.667 -364 50zM370 537.999h110c176.667 0 265 55.333 265 166c0 124.667 -88.333 187 -265 187h-110c-176.667 0 -265 -58 -265 -174c0 -119.333 88.333 -179 265 -179z" />
    <glyph glyph-name="dieresis" unicode="&#xa8;" horiz-adv-x="555" 
d="M555 1430v-150h-185v150h185zM185 1430v-150h-185v150h185z" />
    <glyph glyph-name="copyright" unicode="&#xa9;" horiz-adv-x="1163" 
d="M430 664c240 0 360 120.333 360 361c0 246 -120 369 -360 369c-238 0 -357 -123 -357 -369c0 -240.667 119 -361 357 -361zM0 1023c0 284.667 143.333 427 430 427c288.667 0 433 -142.333 433 -427c0 -276.667 -144.333 -415 -433 -415
c-278.667 0 -422 138.333 -430 415zM615 830c-47.333 -18 -96 -27 -146 -27c-150.667 0 -226 76.333 -226 229c0 142 75.333 213 226 213c50 0 98.667 -9 146 -27v62c-47.333 15.333 -98.666 23 -153.999 23c-192.667 0 -289 -90.333 -289 -271
c0 -191.333 96.333 -287 289 -287c55.333 0 106.666 7.66699 153.999 23v62z" />
    <glyph glyph-name="ordfeminine" unicode="&#xaa;" horiz-adv-x="402" 
 />
    <glyph glyph-name="guillemotleft" unicode="&#xab;" horiz-adv-x="849" 
d="M577 150h122l-258 375l258 375h-122l-258 -375zM258 150h122l-258 375l258 375h-122l-258 -375z" />
    <glyph glyph-name="logicalnot" unicode="&#xac;" horiz-adv-x="1395" 
 />
    <glyph glyph-name="minus" unicode="&#xad;" horiz-adv-x="636" 
 />
    <glyph glyph-name="minus" unicode="&#x2212;" horiz-adv-x="636" 
 />
    <glyph glyph-name="registered" unicode="&#xae;" horiz-adv-x="1163" 
d="M254 756v535.999h229c102 0 153 -42.667 153 -128c0 -70 -50 -121.667 -150 -155l184 -253h-91l-171 241v45c102.667 16.667 154 56.334 154 119.001c0 49.333 -28.667 74 -86 74h-153v-479h-69zM430 663.999c240 0 360 120.333 360 361c0 246 -120 369 -360 369
c-238 0 -357 -123 -357 -369c0 -240.667 119 -361 357 -361zM0 1023c0 284.667 143.333 427 430 427c288.667 0 433 -142.333 433 -427c0 -276.667 -144.333 -415 -433 -415c-278.667 0 -422 138.333 -430 415z" />
    <glyph glyph-name="macron" unicode="&#xaf;" horiz-adv-x="360" 
 />
    <glyph glyph-name="macron" unicode="&#x2c9;" horiz-adv-x="360" 
 />
    <glyph glyph-name="degree" unicode="&#xb0;" horiz-adv-x="752" 
d="M278 985c122.667 0 184 62.333 184 187c0 122.667 -61.333 184 -184 184c-125.333 0 -188 -61.333 -188 -184c0 -124.667 62.667 -187 188 -187zM0 1170c0 173.333 92.667 260 278 260c182.667 0 274 -86.667 274 -260c0 -172.667 -91.333 -259 -274 -259
c-185.333 0 -278 86.333 -278 259z" />
    <glyph glyph-name="plusminus" unicode="&#xb1;" horiz-adv-x="636" 
 />
    <glyph glyph-name="twosuperior" unicode="&#xb2;" horiz-adv-x="300" 
 />
    <glyph glyph-name="threesuperior" unicode="&#xb3;" horiz-adv-x="300" 
 />
    <glyph glyph-name="acute" unicode="&#xb4;" horiz-adv-x="400" 
d="M400 1475v-90l-400 -150v90z" />
    <glyph glyph-name="mu" unicode="&#xb5;" horiz-adv-x="1185" 
d="M885 1050v-1050h-77l-12 134c-160.667 -89.333 -298.667 -134 -414 -134c-122.667 0 -215 40 -277 120v-500h-105v1430h105v-672c0 -189.333 104 -284 312 -284c106 0 227 44.333 363 133v823h105z" />
    <glyph glyph-name="mu" unicode="&#x3bc;" horiz-adv-x="1185" 
d="M885 1050v-1050h-77l-12 134c-160.667 -89.333 -298.667 -134 -414 -134c-122.667 0 -215 40 -277 120v-500h-105v1430h105v-672c0 -189.333 104 -284 312 -284c106 0 227 44.333 363 133v823h105z" />
    <glyph glyph-name="paragraph" unicode="&#xb6;" horiz-adv-x="953" 
d="M443 -434v972c-295.333 0 -443 149.333 -443 448c0 296 147.667 444 443 444h510v-90h-150v-1774h-100v1774h-160v-1774h-100z" />
    <glyph glyph-name="periodcentered" unicode="&#xb7;" horiz-adv-x="450" 
d="M0 525c0 83.333 41.667 125 125 125s125 -41.667 125 -125s-41.667 -125 -125 -125s-125 41.667 -125 125z" />
    <glyph glyph-name="periodcentered" unicode="&#x2219;" horiz-adv-x="450" 
d="M0 525c0 83.333 41.667 125 125 125s125 -41.667 125 -125s-41.667 -125 -125 -125s-125 41.667 -125 125z" />
    <glyph glyph-name="cedilla" unicode="&#xb8;" horiz-adv-x="457" 
d="M0 -372c72 -33.333 144 -50 216 -50c160.667 0 241 57.667 241 173c0 114.667 -74.667 172 -224 172l81 152h-95l-131 -230h153c82 0 123 -31.333 123 -94c0 -63.333 -49.333 -95 -148 -95c-72 0 -144 20 -216 60v-88z" />
    <glyph glyph-name="onesuperior" unicode="&#xb9;" horiz-adv-x="300" 
 />
    <glyph glyph-name="ordmasculine" unicode="&#xba;" horiz-adv-x="402" 
 />
    <glyph glyph-name="guillemotright" unicode="&#xbb;" horiz-adv-x="849" 
d="M380 525l-258 375h-122l258 -375l-258 -375h122zM699 525l-258 375h-122l258 -375l-258 -375h122z" />
    <glyph glyph-name="onequarter" unicode="&#xbc;" horiz-adv-x="786" 
 />
    <glyph glyph-name="onehalf" unicode="&#xbd;" horiz-adv-x="786" 
 />
    <glyph glyph-name="threequarters" unicode="&#xbe;" horiz-adv-x="786" 
 />
    <glyph glyph-name="questiondown" unicode="&#xbf;" horiz-adv-x="1115" 
d="M190 945v105h105v-105h-105zM0 -330c140 -33.333 273.333 -50 400 -50c343.333 0 515 130 515 390s-165.667 390 -497 390h-123v280h-105v-370h225c263.333 0 395 -100 395 -300s-136.667 -300 -410 -300c-126.667 0 -260 16.667 -400 50v-90z" />
    <glyph glyph-name="Agrave" unicode="&#xc0;" horiz-adv-x="1472" 
d="M900 1658v-90l-400 150v90zM0 0l647 1430h125l650 -1430h-125l-210 480h-608l31 90h537l-344 778l-591 -1348h-112z" />
    <glyph glyph-name="Aacute" unicode="&#xc1;" horiz-adv-x="1472" 
d="M900 1808v-90l-400 -150v90zM0 0l647 1430h125l650 -1430h-125l-210 480h-608l31 90h537l-344 778l-591 -1348h-112z" />
    <glyph glyph-name="Acircumflex" unicode="&#xc2;" horiz-adv-x="1472" 
d="M0 0l647 1430h125l650 -1430h-125l-210 480h-608l31 90h537l-344 778l-591 -1348h-112zM653 1834h110l195 -260h-100l-152 194l-148 -194h-100z" />
    <glyph glyph-name="Atilde" unicode="&#xc3;" horiz-adv-x="1472" 
d="M703 1759c90 -40 176.667 -33.333 260 20v-90c-70 -53.333 -150 -60 -240 -20s-176.667 33.333 -260 -20v90c70 53.333 150 60 240 20zM0 0l647 1430h125l650 -1430h-125l-210 480h-608l31 90h537l-344 778l-591 -1348h-112z" />
    <glyph glyph-name="Adieresis" unicode="&#xc4;" horiz-adv-x="1472" 
d="M924 1759v-110h-115v110h115zM604 1759v-110h-115v110h115zM0 0l647 1430h125l650 -1430h-125l-210 480h-608l31 90h537l-344 778l-591 -1348h-112z" />
    <glyph glyph-name="Aring" unicode="&#xc5;" horiz-adv-x="1472" 
d="M707 1431c96 0 144 49 144 147c0 96 -48 144 -144 144c-98.667 0 -148 -48 -148 -144c0 -98 49.333 -147 148 -147zM479 1576c0 140 76 210 228 210c149.333 0 224 -70 224 -210c0 -139.333 -74.667 -209 -224 -209c-152 0 -228 69.667 -228 209zM0 0l647 1430h125
l650 -1430h-125l-210 480h-608l31 90h537l-344 778l-591 -1348h-112z" />
    <glyph glyph-name="AE" unicode="&#xc6;" horiz-adv-x="1875" 
d="M0 0l607 1430h1098v-90h-918l240 -570h643v-90h-604l256 -590h403v-90h-498l-557 1353l-303 -783h511l38 -90h-600l-194 -480h-122z" />
    <glyph glyph-name="Ccedilla" unicode="&#xc7;" horiz-adv-x="1385" 
d="M483 -372c72 -33.333 144 -50 216 -50c160.667 0 241 57.667 241 173c0 114.667 -74.667 172 -224 172l81 152h-95l-131 -230h153c82 0 123 -31.333 123 -94c0 -63.333 -49.333 -95 -148 -95c-72 0 -144 20 -216 60v-88zM1150 140c-130 -40 -256.667 -60 -380 -60
c-443.333 0 -665 218.333 -665 655c0 410 221.667 615 665 615c123.333 0 250 -20 380 -60v90c-130 40 -263.333 60 -400 60c-500 0 -750 -235 -750 -705c0 -496.667 250 -745 750 -745c136.667 0 270 20 400 60v90z" />
    <glyph glyph-name="Egrave" unicode="&#xc8;" horiz-adv-x="1228" 
d="M686 1658v-90l-400 150v90zM0 1430v-1430h953v90h-848v590h800v90h-800v570h834v90h-939z" />
    <glyph glyph-name="Eacute" unicode="&#xc9;" horiz-adv-x="1228" 
d="M686 1808v-90l-400 -150v90zM0 1430v-1430h953v90h-848v590h800v90h-800v570h834v90h-939z" />
    <glyph glyph-name="Ecircumflex" unicode="&#xca;" horiz-adv-x="1228" 
d="M0 1430v-1430h953v90h-848v590h800v90h-800v570h834v90h-939zM424 1834h110l195 -260h-100l-152 194l-148 -194h-100z" />
    <glyph glyph-name="Edieresis" unicode="&#xcb;" horiz-adv-x="1228" 
d="M0 1430v-1430h953v90h-848v590h800v90h-800v570h834v90h-939zM688 1759v-110h-115v110h115zM368 1759v-110h-115v110h115z" />
    <glyph glyph-name="Igrave" unicode="&#xcc;" 
d="M105 1430v-1430h-105v1430h105zM255 1658v-100l-405 150v100z" />
    <glyph glyph-name="Iacute" unicode="&#xcd;" 
d="M105 1430v-1430h-105v1430h105zM255 1808v-90l-405 -150v90z" />
    <glyph glyph-name="Icircumflex" unicode="&#xce;" 
d="M105 1430v-1430h-105v1430h105zM-200 1574h100l148 194l152 -194h100l-195 260h-110z" />
    <glyph glyph-name="Idieresis" unicode="&#xcf;" 
d="M105 1430v-1430h-105v1430h105zM270 1759v-110h-115v110h115zM-50 1759v-110h-115v110h115z" />
    <glyph glyph-name="Eth" unicode="&#xd0;" horiz-adv-x="663" 
 />
    <glyph glyph-name="Ntilde" unicode="&#xd1;" horiz-adv-x="1485" 
d="M605 1759c90 -40 176.667 -33.333 260 20v-90c-70 -53.333 -150 -60 -240 -20s-176.667 33.333 -260 -20v90c70 53.333 150 60 240 20zM0 0v1430h135l955 -1242v1242h95v-1430h-85l-1005 1312v-1312h-95z" />
    <glyph glyph-name="Ograve" unicode="&#xd2;" horiz-adv-x="1625" 
d="M890 1658v-90l-400 150v90zM718 80c394.667 0 592 213 592 639c0 420.667 -197.333 631 -592 631c-402 0 -603 -210.333 -603 -631c0 -426 201 -639 603 -639zM0 713c0 484.667 239.333 727 718 727c471.333 0 707 -242.333 707 -727c0 -482 -235.667 -723 -707 -723
c-478.667 0 -718 241 -718 723z" />
    <glyph glyph-name="Oacute" unicode="&#xd3;" horiz-adv-x="1625" 
d="M890 1808v-90l-400 -150v90zM718 80c394.667 0 592 213 592 639c0 420.667 -197.333 631 -592 631c-402 0 -603 -210.333 -603 -631c0 -426 201 -639 603 -639zM0 713c0 484.667 239.333 727 718 727c471.333 0 707 -242.333 707 -727c0 -482 -235.667 -723 -707 -723
c-478.667 0 -718 241 -718 723z" />
    <glyph glyph-name="Ocircumflex" unicode="&#xd4;" horiz-adv-x="1625" 
d="M653 1834h110l195 -260h-100l-152 194l-148 -194h-100zM718 80c394.667 0 592 213 592 639c0 420.667 -197.333 631 -592 631c-402 0 -603 -210.333 -603 -631c0 -426 201 -639 603 -639zM0 713c0 484.667 239.333 727 718 727c471.333 0 707 -242.333 707 -727
c0 -482 -235.667 -723 -707 -723c-478.667 0 -718 241 -718 723z" />
    <glyph glyph-name="Otilde" unicode="&#xd5;" horiz-adv-x="1625" 
d="M718 80c394.667 0 592 213 592 639c0 420.667 -197.333 631 -592 631c-402 0 -603 -210.333 -603 -631c0 -426 201 -639 603 -639zM0 713c0 484.667 239.333 727 718 727c471.333 0 707 -242.333 707 -727c0 -482 -235.667 -723 -707 -723c-478.667 0 -718 241 -718 723z
M703 1759c90 -40 176.667 -33.333 260 20v-90c-70 -53.333 -150 -60 -240 -20s-176.667 33.333 -260 -20v90c70 53.333 150 60 240 20z" />
    <glyph glyph-name="Odieresis" unicode="&#xd6;" horiz-adv-x="1625" 
d="M718 80c394.667 0 592 213 592 639c0 420.667 -197.333 631 -592 631c-402 0 -603 -210.333 -603 -631c0 -426 201 -639 603 -639zM0 713c0 484.667 239.333 727 718 727c471.333 0 707 -242.333 707 -727c0 -482 -235.667 -723 -707 -723c-478.667 0 -718 241 -718 723z
M934 1759v-110h-115v110h115zM614 1759v-110h-115v110h115z" />
    <glyph glyph-name="multiply" unicode="&#xd7;" horiz-adv-x="636" 
 />
    <glyph glyph-name="Oslash" unicode="&#xd8;" horiz-adv-x="1625" 
d="M98 0l1083 1430h138l-1084 -1430h-137zM718 80c394.667 0 592 213 592 639c0 420.667 -197.333 631 -592 631c-402 0 -603 -210.333 -603 -631c0 -426 201 -639 603 -639zM0 713c0 484.667 239.333 727 718 727c471.333 0 707 -242.333 707 -727
c0 -482 -235.667 -723 -707 -723c-478.667 0 -718 241 -718 723z" />
    <glyph glyph-name="Ugrave" unicode="&#xd9;" horiz-adv-x="1450" 
d="M798 1658v-90l-400 150v90zM0 552v878h105v-878c0 -314.667 156.667 -472 470 -472s470 157.333 470 472v878h105v-878c0 -374.667 -191.667 -562 -575 -562s-575 187.333 -575 562z" />
    <glyph glyph-name="Uacute" unicode="&#xda;" horiz-adv-x="1450" 
d="M798 1808v-90l-400 -150v90zM0 552v878h105v-878c0 -314.667 156.667 -472 470 -472s470 157.333 470 472v878h105v-878c0 -374.667 -191.667 -562 -575 -562s-575 187.333 -575 562z" />
    <glyph glyph-name="Ucircumflex" unicode="&#xdb;" horiz-adv-x="1450" 
d="M525 1834h110l195 -260h-100l-152 194l-148 -194h-100zM0 552v878h105v-878c0 -314.667 156.667 -472 470 -472s470 157.333 470 472v878h105v-878c0 -374.667 -191.667 -562 -575 -562s-575 187.333 -575 562z" />
    <glyph glyph-name="Udieresis" unicode="&#xdc;" horiz-adv-x="1450" 
d="M0 552v878h105v-878c0 -314.667 156.667 -472 470 -472s470 157.333 470 472v878h105v-878c0 -374.667 -191.667 -562 -575 -562s-575 187.333 -575 562zM785 1759v-110h-115v110h115zM465 1759v-110h-115v110h115z" />
    <glyph glyph-name="Yacute" unicode="&#xdd;" horiz-adv-x="526" 
 />
    <glyph glyph-name="Thorn" unicode="&#xde;" horiz-adv-x="576" 
 />
    <glyph glyph-name="germandbls" unicode="&#xdf;" horiz-adv-x="1181" 
d="M0 0v959c0 312 154.667 468 464 468c266.667 0 400 -132.333 400 -397v-55c-216 -68.667 -324 -154.667 -324 -258c0 -74 65.167 -134.833 195.5 -182.5s195.5 -125.167 195.5 -232.5c0 -201.333 -131.333 -302 -394 -302h-132v90h134c184.667 0 277 70.667 277 212
c0 74 -63.5 133.167 -190.5 177.5s-190.5 122.5 -190.5 234.5c0 138.667 106 244 318 316c0 204.667 -98.667 307 -296 307c-234.667 0 -352 -127 -352 -381v-956h-105z" />
    <glyph glyph-name="agrave" unicode="&#xe0;" horiz-adv-x="1135" 
d="M658 1325v-90l-400 150v90zM0 317c0 202 148.667 303 446 303c104.667 0 216 -6.66699 334 -20v129c0 154 -121 231 -363 231c-108 0 -218.667 -16.667 -332 -50v90c113.333 33.333 224 50 332 50c312 0 468 -112 468 -336v-714h-64l-34 74
c-138 -49.333 -268.667 -74 -392 -74c-263.333 0 -395 105.667 -395 317zM446 530c-227.333 0 -341.001 -70 -341.001 -210c0 -153.333 96.667 -230 290 -230c128 0 256.333 27.333 385 82v338c-113.333 13.333 -224.666 20 -333.999 20z" />
    <glyph glyph-name="aacute" unicode="&#xe1;" horiz-adv-x="1135" 
d="M658 1475v-90l-400 -150v90zM0 317c0 202 148.667 303 446 303c104.667 0 216 -6.66699 334 -20v129c0 154 -121 231 -363 231c-108 0 -218.667 -16.667 -332 -50v90c113.333 33.333 224 50 332 50c312 0 468 -112 468 -336v-714h-64l-34 74
c-138 -49.333 -268.667 -74 -392 -74c-263.333 0 -395 105.667 -395 317zM446 530c-227.333 0 -341.001 -70 -341.001 -210c0 -153.333 96.667 -230 290 -230c128 0 256.333 27.333 385 82v338c-113.333 13.333 -224.666 20 -333.999 20z" />
    <glyph glyph-name="acircumflex" unicode="&#xe2;" horiz-adv-x="1135" 
d="M215 1280h100l148 194l152 -194h100l-195 260h-110zM0 317c0 202 148.667 303 446 303c104.667 0 216 -6.66699 334 -20v129c0 154 -121 231 -363 231c-108 0 -218.667 -16.667 -332 -50v90c113.333 33.333 224 50 332 50c312 0 468 -112 468 -336v-714h-64l-34 74
c-138 -49.333 -268.667 -74 -392 -74c-263.333 0 -395 105.667 -395 317zM446 530c-227.333 0 -341.001 -70 -341.001 -210c0 -153.333 96.667 -230 290 -230c128 0 256.333 27.333 385 82v338c-113.333 13.333 -224.666 20 -333.999 20z" />
    <glyph glyph-name="atilde" unicode="&#xe3;" horiz-adv-x="1135" 
d="M443 1399c90 -40 176.667 -33.333 260 20v-90c-70 -53.333 -150 -60 -240 -20s-176.667 33.333 -260 -20v90c70 53.333 150 60 240 20zM0 317c0 202 148.667 303 446 303c104.667 0 216 -6.66699 334 -20v129c0 154 -121 231 -363 231c-108 0 -218.667 -16.667 -332 -50
v90c113.333 33.333 224 50 332 50c312 0 468 -112 468 -336v-714h-64l-34 74c-138 -49.333 -268.667 -74 -392 -74c-263.333 0 -395 105.667 -395 317zM446 530c-227.333 0 -341.001 -70 -341.001 -210c0 -153.333 96.667 -230 290 -230c128 0 256.333 27.333 385 82v338
c-113.333 13.333 -224.666 20 -333.999 20z" />
    <glyph glyph-name="adieresis" unicode="&#xe4;" horiz-adv-x="1135" 
d="M686 1400v-110h-115v110h115zM366 1400v-110h-115v110h115zM0 317c0 202 148.667 303 446 303c104.667 0 216 -6.66699 334 -20v129c0 154 -121 231 -363 231c-108 0 -218.667 -16.667 -332 -50v90c113.333 33.333 224 50 332 50c312 0 468 -112 468 -336v-714h-64
l-34 74c-138 -49.333 -268.667 -74 -392 -74c-263.333 0 -395 105.667 -395 317zM446 530c-227.333 0 -341.001 -70 -341.001 -210c0 -153.333 96.667 -230 290 -230c128 0 256.333 27.333 385 82v338c-113.333 13.333 -224.666 20 -333.999 20z" />
    <glyph glyph-name="aring" unicode="&#xe5;" horiz-adv-x="1135" 
d="M465 1394c96 0 144 49 144 147c0 96 -48 144 -144 144c-98.667 0 -148 -48 -148 -144c0 -98 49.333 -147 148 -147zM227 1539c0 146.667 79.333 220 238 220c156 0 234 -73.333 234 -220c0 -146 -78 -219 -234 -219c-158.667 0 -238 73 -238 219zM0 317
c0 202 148.667 303 446 303c104.667 0 216 -6.66699 334 -20v129c0 154 -121 231 -363 231c-108 0 -218.667 -16.667 -332 -50v90c113.333 33.333 224 50 332 50c312 0 468 -112 468 -336v-714h-64l-34 74c-138 -49.333 -268.667 -74 -392 -74
c-263.333 0 -395 105.667 -395 317zM446 530c-227.333 0 -341.001 -70 -341.001 -210c0 -153.333 96.667 -230 290 -230c128 0 256.333 27.333 385 82v338c-113.333 13.333 -224.666 20 -333.999 20z" />
    <glyph glyph-name="ae" unicode="&#xe6;" horiz-adv-x="1830" 
d="M426 530c-214 0 -321 -66.667 -321 -200c0 -160 93.333 -240 280 -240c134.667 0 253 57.333 355 172v248c-100 13.333 -204.667 20 -314 20zM846 596h637.999c22.667 242.667 -80.666 364 -309.999 364c-206.667 0 -316 -121.333 -328 -364zM88.999 912v85
c112 35.333 223.333 53 334 53c219.333 0 351.333 -60 396 -180c78 120 208.667 180 392 180c305.333 0 433.333 -182.667 384 -548h-747c0 -274.667 146.667 -412 440 -412c98.667 0 193.667 9.66699 285 29v-89c-97.333 -20 -211 -30 -341 -30
c-168 0 -305.667 59 -413 177c-132 -118 -276.333 -177 -433 -177c-257.333 0 -386 109.667 -386 329c0 194 142.333 291 427 291c102.667 0 208 -7.33301 316 -22v133c0 152.667 -107.333 229 -322 229c-113.333 0 -224 -16 -332 -48z" />
    <glyph glyph-name="ccedilla" unicode="&#xe7;" horiz-adv-x="1025" 
d="M850 120c-86.667 -20 -173.334 -30 -260.001 -30c-316.667 0 -475 151.667 -475 455c0 276.667 158.333 415 475 415c86.667 0 173.334 -10 260.001 -30v90c-86.667 20 -180 30 -280 30c-380 0 -570 -168.333 -570 -505c0 -363.333 190 -545 570 -545
c100 0 193.333 10 280 30v90zM298 -372c72 -33.333 144 -50 216 -50c160.667 0 241 57.667 241 173c0 114.667 -74.667 172 -224 172l81 152h-95l-131 -230h153c82 0 123 -31.333 123 -94c0 -63.333 -49.333 -95 -148 -95c-72 0 -144 20 -216 60v-88z" />
    <glyph glyph-name="egrave" unicode="&#xe8;" horiz-adv-x="1126" 
d="M668 1325v-90l-400 150v90zM892 502h-787c0 -274.667 162 -412 486 -412c92.667 0 185.334 10 278.001 30v-90c-92.667 -20 -205.334 -30 -338.001 -30c-354 0 -531 179 -531 537c0 342 167.667 513 503 513c308 0 437.667 -182.667 389 -548zM105 596h688
c16 244 -90.667 366 -320 366c-233.333 0 -356 -122 -368 -366z" />
    <glyph glyph-name="eacute" unicode="&#xe9;" horiz-adv-x="1126" 
d="M668 1475v-90l-400 -150v90zM892 502h-787c0 -274.667 162 -412 486 -412c92.667 0 185.334 10 278.001 30v-90c-92.667 -20 -205.334 -30 -338.001 -30c-354 0 -531 179 -531 537c0 342 167.667 513 503 513c308 0 437.667 -182.667 389 -548zM105 596h688
c16 244 -90.667 366 -320 366c-233.333 0 -356 -122 -368 -366z" />
    <glyph glyph-name="ecircumflex" unicode="&#xea;" horiz-adv-x="1126" 
d="M892 502h-787c0 -274.667 162 -412 486 -412c92.667 0 185.334 10 278.001 30v-90c-92.667 -20 -205.334 -30 -338.001 -30c-354 0 -531 179 -531 537c0 342 167.667 513 503 513c308 0 437.667 -182.667 389 -548zM105 596h688c16 244 -90.667 366 -320 366
c-233.333 0 -356 -122 -368 -366zM215 1280h100l148 194l152 -194h100l-195 260h-110z" />
    <glyph glyph-name="edieresis" unicode="&#xeb;" horiz-adv-x="1126" 
d="M892 502h-787c0 -274.667 162 -412 486 -412c92.667 0 185.334 10 278.001 30v-90c-92.667 -20 -205.334 -30 -338.001 -30c-354 0 -531 179 -531 537c0 342 167.667 513 503 513c308 0 437.667 -182.667 389 -548zM105 596h688c16 244 -90.667 366 -320 366
c-233.333 0 -356 -122 -368 -366zM686 1400v-110h-115v110h115zM366 1400v-110h-115v110h115z" />
    <glyph glyph-name="igrave" unicode="&#xec;" 
d="M105 1050v-1050h-105v1050h105zM255 1325v-100l-405 150v100z" />
    <glyph glyph-name="iacute" unicode="&#xed;" 
d="M105 1050v-1050h-105v1050h105zM255 1475v-90l-405 -150v90z" />
    <glyph glyph-name="icircumflex" unicode="&#xee;" 
d="M105 1050v-1050h-105v1050h105zM-200 1280h100l148 194l152 -194h100l-195 260h-110z" />
    <glyph glyph-name="idieresis" unicode="&#xef;" 
d="M105 1050v-1050h-105v1050h105zM270 1400v-110h-115v110h115zM-50 1400v-110h-115v110h115z" />
    <glyph glyph-name="eth" unicode="&#xf0;" horiz-adv-x="483" 
 />
    <glyph glyph-name="ntilde" unicode="&#xf1;" horiz-adv-x="1185" 
d="M443 1399c90 -40 176.667 -33.333 260 20v-90c-70 -53.333 -150 -60 -240 -20s-176.667 33.333 -260 -20v90c70 53.333 150 60 240 20zM0 0v1050h75l13 -134c174 89.333 325.333 134 454 134c228.667 0 343 -110.333 343 -331v-719h-105v722c0 156 -87.667 234 -263 234
c-126 0 -263.333 -44.333 -412 -133v-823h-105z" />
    <glyph glyph-name="ograve" unicode="&#xf2;" horiz-adv-x="1200" 
d="M684 1325v-90l-400 150v90zM500 90c263.333 0 395 146.333 395 439c0 287.333 -131.667 431 -395 431s-395 -143.667 -395 -431c0 -292.667 131.667 -439 395 -439zM0 525c0 350 166.667 525 500 525s500 -175 500 -525c0 -349.333 -166.667 -524 -500 -524
c-332 0 -498.667 174.667 -500 524z" />
    <glyph glyph-name="oacute" unicode="&#xf3;" horiz-adv-x="1200" 
d="M692 1475v-90l-400 -150v90zM500 90c263.333 0 395 146.333 395 439c0 287.333 -131.667 431 -395 431s-395 -143.667 -395 -431c0 -292.667 131.667 -439 395 -439zM0 525c0 350 166.667 525 500 525s500 -175 500 -525c0 -349.333 -166.667 -524 -500 -524
c-332 0 -498.667 174.667 -500 524z" />
    <glyph glyph-name="ocircumflex" unicode="&#xf4;" horiz-adv-x="1200" 
d="M500 90c263.333 0 395 146.333 395 439c0 287.333 -131.667 431 -395 431s-395 -143.667 -395 -431c0 -292.667 131.667 -439 395 -439zM0 525c0 350 166.667 525 500 525s500 -175 500 -525c0 -349.333 -166.667 -524 -500 -524c-332 0 -498.667 174.667 -500 524z
M235 1280h100l148 194l152 -194h100l-195 260h-110z" />
    <glyph glyph-name="otilde" unicode="&#xf5;" horiz-adv-x="1200" 
d="M486 1399c90 -40 176.667 -33.333 260 20v-90c-70 -53.333 -150 -60 -240 -20s-176.667 33.333 -260 -20v90c70 53.333 150 60 240 20zM500 90c263.333 0 395 146.333 395 439c0 287.333 -131.667 431 -395 431s-395 -143.667 -395 -431
c0 -292.667 131.667 -439 395 -439zM0 525c0 350 166.667 525 500 525s500 -175 500 -525c0 -349.333 -166.667 -524 -500 -524c-332 0 -498.667 174.667 -500 524z" />
    <glyph glyph-name="odieresis" unicode="&#xf6;" horiz-adv-x="1200" 
d="M500 90c263.333 0 395 146.333 395 439c0 287.333 -131.667 431 -395 431s-395 -143.667 -395 -431c0 -292.667 131.667 -439 395 -439zM0 525c0 350 166.667 525 500 525s500 -175 500 -525c0 -349.333 -166.667 -524 -500 -524c-332 0 -498.667 174.667 -500 524z
M716 1400v-110h-115v110h115zM396 1400v-110h-115v110h115z" />
    <glyph glyph-name="divide" unicode="&#xf7;" horiz-adv-x="985" 
d="M0 570v-90h785v90h-785zM465 280v-130h-145v130h145zM465 900v-130h-145v130h145z" />
    <glyph glyph-name="oslash" unicode="&#xf8;" horiz-adv-x="1200" 
d="M500 90c263.333 0 395 146.333 395 439c0 287.333 -131.667 431 -395 431s-395 -143.667 -395 -431c0 -292.667 131.667 -439 395 -439zM0 525c0 350 166.667 525 500 525s500 -175 500 -525c0 -349.333 -166.667 -524 -500 -524c-332 0 -498.667 174.667 -500 524zM45 0
l800 1050h138l-801 -1050h-137z" />
    <glyph glyph-name="ugrave" unicode="&#xf9;" horiz-adv-x="1185" 
d="M658 1325v-90l-400 150v90zM885 1050v-1050h-77l-12 134c-174 -89.333 -325.333 -134 -454 -134c-228 -0 -342 130.333 -342 391v659h105v-662c0 -196 97.333 -294 292 -294c106 0 233.667 44.333 383 133v823h105z" />
    <glyph glyph-name="uacute" unicode="&#xfa;" horiz-adv-x="1185" 
d="M658 1475v-90l-400 -150v90zM885 1050v-1050h-77l-12 134c-174 -89.333 -325.333 -134 -454 -134c-228 -0 -342 130.333 -342 391v659h105v-662c0 -196 97.333 -294 292 -294c106 0 233.667 44.333 383 133v823h105z" />
    <glyph glyph-name="ucircumflex" unicode="&#xfb;" horiz-adv-x="1185" 
d="M885 1050v-1050h-77l-12 134c-174 -89.333 -325.333 -134 -454 -134c-228 -0 -342 130.333 -342 391v659h105v-662c0 -196 97.333 -294 292 -294c106 0 233.667 44.333 383 133v823h105zM205 1280h100l148 194l152 -194h100l-195 260h-110z" />
    <glyph glyph-name="udieresis" unicode="&#xfc;" horiz-adv-x="1185" 
d="M885 1050v-1050h-77l-12 134c-174 -89.333 -325.333 -134 -454 -134c-228 -0 -342 130.333 -342 391v659h105v-662c0 -196 97.333 -294 292 -294c106 0 233.667 44.333 383 133v823h105zM663 1400v-110h-115v110h115zM343 1400v-110h-115v110h115z" />
    <glyph glyph-name="yacute" unicode="&#xfd;" horiz-adv-x="393" 
 />
    <glyph glyph-name="thorn" unicode="&#xfe;" horiz-adv-x="348" 
 />
    <glyph glyph-name="ydieresis" unicode="&#xff;" horiz-adv-x="393" 
 />
    <glyph glyph-name="Aogonek" unicode="&#x104;" horiz-adv-x="1472" 
d="M1422 0c-154.667 -84 -232 -160 -232 -228c0 -72 38.333 -108 115 -108c56.667 0 102.334 6.66699 137.001 20v-90c-40.667 -13.333 -90.334 -20 -149.001 -20c-140.667 0 -211 57.667 -211 173c0 100.667 71.667 185 215 253h125zM0 0l647 1430h125l650 -1430h-125
l-210 480h-608l31 90h537l-344 778l-591 -1348h-112z" />
    <glyph glyph-name="aogonek" unicode="&#x105;" horiz-adv-x="1135" 
d="M886 0c-154.667 -84 -232 -159.999 -232 -227.999c0 -72 38.333 -108 115 -108c56.667 0 102.334 6.66699 137.001 20v-90c-40.667 -13.333 -90.334 -20 -149.001 -20c-140.667 0 -211 57.667 -211 173c0 87.333 78 171.666 234 252.999h106zM0 317.001
c0 202 148.666 303 445.999 303c104.667 0 216 -6.66699 334 -20v129c0 154 -121 231 -363 231c-108 0 -218.667 -16.667 -332 -50v90c113.333 33.333 224 50 332 50c312 0 468 -112 468 -336v-714h-105v74c-133.333 -49.333 -261.666 -74 -384.999 -74
c-263.333 0 -395 105.667 -395 317zM445.999 530.001c-227.333 0 -341.001 -70 -341.001 -210c0 -153.333 96.667 -230 290 -230c128 0 256.333 27.333 385 82v338c-113.333 13.333 -224.666 20 -333.999 20z" />
    <glyph glyph-name="Cacute" unicode="&#x106;" horiz-adv-x="1385" 
d="M836 1808v-90l-400 -150v90zM1150 140c-130 -40 -256.667 -60 -380 -60c-443.333 0 -665 218.333 -665 655c0 410 221.667 615 665 615c123.333 0 250 -20 380 -60v90c-130 40 -263.333 60 -400 60c-500 0 -750 -235 -750 -705c0 -496.667 250 -745 750 -745
c136.667 0 270 20 400 60v90z" />
    <glyph glyph-name="cacute" unicode="&#x107;" horiz-adv-x="1025" 
d="M668 1475v-90l-400 -150v90zM850 120c-86.667 -20 -173.334 -30 -260.001 -30c-316.667 0 -475 151.667 -475 455c0 276.667 158.333 415 475 415c86.667 0 173.334 -10 260.001 -30v90c-86.667 20 -180 30 -280 30c-380 0 -570 -168.333 -570 -505
c0 -363.333 190 -545 570 -545c100 0 193.333 10 280 30v90z" />
    <glyph glyph-name="Eogonek" unicode="&#x118;" horiz-adv-x="1225" 
d="M950 0c-168 -84 -252 -160 -252 -228c0 -72 38.333 -108 115 -108c56.667 0 102.334 6.66699 137.001 20v-90c-40.667 -13.333 -90.334 -20 -149.001 -20c-140.667 0 -211 57.667 -211 173c0 100.667 67.667 185 203 253h157zM0 1430v-1430h953v90h-848v590h800v90h-800
v570h834v90h-939z" />
    <glyph glyph-name="eogonek" unicode="&#x119;" horiz-adv-x="1132" 
d="M869 30c-168 -104 -252 -190 -252 -258c0 -72 38.333 -108 115 -108c56.667 0 102.334 6.66699 137.001 20v-90c-40.667 -13.333 -90.334 -20 -149.001 -20c-140.667 0 -211 57.667 -211 173c0 100.667 74.333 195 223 283h137zM892 502h-787
c0 -274.667 162 -412 486 -412c92.667 0 185.334 10 278.001 30v-90c-92.667 -20 -205.334 -30 -338.001 -30c-354 0 -531 179 -531 537c0 342 167.667 513 503 513c308 0 437.667 -182.667 389 -548zM105 596h688c16 244 -90.667 366 -320 366
c-233.333 0 -356 -122 -368 -366z" />
    <glyph glyph-name="dotlessi" unicode="&#x131;" horiz-adv-x="234" 
 />
    <glyph glyph-name="Lslash" unicode="&#x141;" horiz-adv-x="1183" 
d="M-150 482l658 484v110l-658 -484v-110zM0 1430v-1430h933v90h-828v1340h-105z" />
    <glyph glyph-name="lslash" unicode="&#x142;" 
d="M0 1430v-1430h105v1430h-105zM-150 482l405 300v110l-405 -300v-110z" />
    <glyph glyph-name="Nacute" unicode="&#x143;" horiz-adv-x="1485" 
d="M802 1808v-90l-400 -150v90zM0 0v1430h135l955 -1242v1242h95v-1430h-85l-1005 1312v-1312h-95z" />
    <glyph glyph-name="nacute" unicode="&#x144;" horiz-adv-x="1185" 
d="M645 1475v-90l-400 -150v90zM0 0v1050h75l13 -134c174 89.333 325.333 134 454 134c228.667 0 343 -110.333 343 -331v-719h-105v722c0 156 -87.667 234 -263 234c-126 0 -263.333 -44.333 -412 -133v-823h-105z" />
    <glyph glyph-name="OE" unicode="&#x152;" horiz-adv-x="2215" 
d="M718 90c394.667 0 592 209.667 592 629c0 414 -197.333 621 -592 621c-402 0 -603 -207 -603 -621c0 -419.333 201 -629 603 -629zM0 713c0 478 239.333 717 718 717h1257v-90h-855c183.333 -91.333 285 -281.333 305 -570h515v-90h-515
c-20 -298 -125.667 -494.667 -317 -590h882v-90h-1272c-478.667 0 -718 237.667 -718 713z" />
    <glyph glyph-name="oe" unicode="&#x153;" horiz-adv-x="1944" 
d="M500 90c236.667 0 355 146.333 355 439c0 287.333 -118.333 431 -355 431c-263.333 0 -395 -143.667 -395 -431c0 -292.667 131.667 -439 395 -439zM960 596h637.999c22.667 244 -80.666 366 -309.999 366c-206.667 0 -316 -122 -328 -366zM-0.000976562 522
c0 352 168 528 504 528c189.333 0 324.333 -73 405 -219c65.333 146 201 219 407 219c318 0 448 -182.667 390 -548h-743c0 -274.667 147.333 -412 442 -412c98 0 191 12.667 279 38v-96c-91.333 -21.333 -202.333 -32 -333 -32c-208 -0 -355 75.333 -441 226
c-76.667 -150.667 -212 -226 -406 -226c-336 0 -504 174 -504 522z" />
    <glyph glyph-name="Sacute" unicode="&#x15a;" horiz-adv-x="1310" 
d="M698 1808v-90l-400 -150v90zM40 50v100c150 -46.667 315.333 -70 496 -70c292.667 0 439 116.667 439 350c0 160 -97.333 240 -292 240h-314c-266 0 -399 116.667 -399 350c0 280 191.667 420 575 420c160 0 315 -20 465 -60v-90c-150 40 -305 60 -465 60
c-313.333 0 -470 -110 -470 -330c0 -166.667 98 -250 294 -250h314c264.667 0 397 -113.333 397 -340c0 -293.333 -181.333 -440 -544 -440c-180.667 0 -346 20 -496 60z" />
    <glyph glyph-name="sacute" unicode="&#x15b;" horiz-adv-x="1050" 
d="M592 1475v-90l-400 -150v90zM30 50v100c116.667 -40 238 -60 364 -60c220.667 0 331 70 331 210c0 113.333 -81.667 170 -245 170h-170c-220 0 -330 93.333 -330 280c0 200 145.667 300 437 300c125.333 0 246.333 -16.667 363 -50v-100c-116.667 40 -237.667 60 -363 60
c-221.333 0 -332 -70 -332 -210c0 -120 75 -180 225 -180h170c233.333 0 350 -90 350 -270c0 -200 -145.333 -300 -436 -300c-126 0 -247.333 16.667 -364 50z" />
    <glyph glyph-name="Scaron" unicode="&#x160;" horiz-adv-x="621" 
 />
    <glyph glyph-name="scaron" unicode="&#x161;" horiz-adv-x="342" 
 />
    <glyph glyph-name="Ydieresis" unicode="&#x178;" horiz-adv-x="526" 
 />
    <glyph glyph-name="Zacute" unicode="&#x179;" horiz-adv-x="1250" 
d="M687 1808v-90l-400 -150v90zM20 1430v-90h874l-894 -1260v-80h980v90h-847l867 1250v90h-980z" />
    <glyph glyph-name="zacute" unicode="&#x17a;" horiz-adv-x="990" 
d="M615 1475v-90l-400 -150v90zM20 1050h770v-90l-657 -870h637v-90h-770v90l665 870h-645v90z" />
    <glyph glyph-name="Zdot" unicode="&#x17b;" horiz-adv-x="1250" 
d="M585 1789v-150h-175v150h175zM20 1430v-90h874l-894 -1260v-80h980v90h-847l867 1250v90h-980z" />
    <glyph glyph-name="zdot" unicode="&#x17c;" horiz-adv-x="990" 
d="M489 1430v-150h-165v150h165zM20 1050h770v-90l-657 -870h637v-90h-770v90l665 870h-645v90z" />
    <glyph glyph-name="Zcaron" unicode="&#x17d;" horiz-adv-x="690" 
 />
    <glyph glyph-name="zcaron" unicode="&#x17e;" horiz-adv-x="462" 
 />
    <glyph glyph-name="florin" unicode="&#x192;" horiz-adv-x="576" 
 />
    <glyph glyph-name="circumflex" unicode="&#x2c6;" horiz-adv-x="550" 
d="M0 1280h100l148 194l152 -194h100l-195 260h-110z" />
    <glyph glyph-name="caron" unicode="&#x2c7;" horiz-adv-x="360" 
 />
    <glyph glyph-name="breve" unicode="&#x2d8;" horiz-adv-x="360" 
 />
    <glyph glyph-name="dotaccent" unicode="&#x2d9;" horiz-adv-x="183" 
 />
    <glyph glyph-name="ring" unicode="&#x2da;" horiz-adv-x="552" 
d="M278 1431c96 0 144 49 144 147c0 96 -48 144 -144 144c-98.667 0 -148 -48 -148 -144c0 -98 49.333 -147 148 -147zM0 1576c0 173.333 92.667 260 278 260c182.667 0 274 -86.667 274 -260c0 -172.667 -91.333 -259 -274 -259c-185.333 0 -278 86.333 -278 259z" />
    <glyph glyph-name="ogonek" unicode="&#x2db;" horiz-adv-x="270" 
 />
    <glyph glyph-name="tilde" unicode="&#x2dc;" horiz-adv-x="700" 
d="M240 570c90 -40 176.667 -33.333 260 20v-90c-70 -53.333 -150 -60 -240 -20s-176.667 33.333 -260 -20v90c70 53.333 150 60 240 20z" />
    <glyph glyph-name="hungarumlaut" unicode="&#x2dd;" horiz-adv-x="468" 
 />
    <glyph glyph-name="Delta" unicode="&#x394;" horiz-adv-x="366" 
 />
    <glyph glyph-name="Delta" unicode="&#x2206;" horiz-adv-x="366" 
 />
    <glyph glyph-name="Omega" unicode="&#x3a9;" horiz-adv-x="1443" 
 />
    <glyph glyph-name="Omega" unicode="&#x2126;" horiz-adv-x="1443" 
 />
    <glyph glyph-name="pi" unicode="&#x3c0;" horiz-adv-x="798" 
 />
    <glyph glyph-name="endash" unicode="&#x2013;" horiz-adv-x="684" 
 />
    <glyph glyph-name="emdash" unicode="&#x2014;" horiz-adv-x="894" 
 />
    <glyph glyph-name="quoteleft" unicode="&#x2018;" horiz-adv-x="475" 
d="M-1 1430l150 -435h125l-150 435h-125z" />
    <glyph glyph-name="quoteright" unicode="&#x2019;" horiz-adv-x="475" 
d="M150 1430l-150 -435h125l150 435h-125z" />
    <glyph glyph-name="quotesinglbase" unicode="&#x201a;" horiz-adv-x="234" 
 />
    <glyph glyph-name="quotedblleft" unicode="&#x201c;" horiz-adv-x="785" 
d="M460 1430l-150 -435h125l150 435h-125zM150 1430l-150 -435h125l150 435h-125z" />
    <glyph glyph-name="quotedblright" unicode="&#x201d;" horiz-adv-x="905" 
d="M-1 1430l150 -435h125l-150 435h-125zM309 1430l150 -435h125l-150 435h-125z" />
    <glyph glyph-name="quotedblbase" unicode="&#x201e;" horiz-adv-x="785" 
d="M460 185l-150 -435h125l150 435h-125zM150 185l-150 -435h125l150 435h-125z" />
    <glyph glyph-name="dagger" unicode="&#x2020;" horiz-adv-x="955" 
d="M105 1430v-420h370v-100h-370v-910h-105v910h-380v100h380v420h105z" />
    <glyph glyph-name="daggerdbl" unicode="&#x2021;" horiz-adv-x="336" 
 />
    <glyph glyph-name="bullet" unicode="&#x2022;" horiz-adv-x="630" 
d="M0 725c0 143.333 71.667 215 215 215s215 -71.667 215 -215s-71.667 -215 -215 -215s-215 71.667 -215 215z" />
    <glyph glyph-name="ellipsis" unicode="&#x2026;" horiz-adv-x="792" 
 />
    <glyph glyph-name="perthousand" unicode="&#x2030;" horiz-adv-x="2027" 
d="M1553 74c116 0 174 59 174 177c0 116 -58 174 -174 174c-118.667 0 -178 -58 -178 -174c0 -118 59.333 -177 178 -177zM1275 249c0 173.333 92.667 260 278 260c182.667 0 274 -86.667 274 -260c0 -172.667 -91.333 -259 -274 -259c-185.333 0 -278 86.333 -278 259z
M125 0h-125l1017 1430h125zM278 1005c116 0 174 59 174 177c0 116 -58 174 -174 174c-118.667 0 -178 -58 -178 -174c0 -118 59.333 -177 178 -177zM0 1180c0 173.333 92.667 260 278 260c182.667 0 274 -86.667 274 -260c0 -172.667 -91.333 -259 -274 -259
c-185.333 0 -278 86.333 -278 259zM868 74c116 0 174 59 174 177c0 116 -58 174 -174 174c-118.667 0 -178 -58 -178 -174c0 -118 59.333 -177 178 -177zM590 249c0 173.333 92.667 260 278 260c182.667 0 274 -86.667 274 -260c0 -172.667 -91.333 -259 -274 -259
c-185.333 0 -278 86.333 -278 259z" />
    <glyph glyph-name="guilsinglleft" unicode="&#x2039;" horiz-adv-x="530" 
d="M258 150h122l-258 375l258 375h-122l-258 -375z" />
    <glyph glyph-name="guilsinglright" unicode="&#x203a;" horiz-adv-x="530" 
d="M380 525l-258 375h-122l258 -375l-258 -375h122z" />
    <glyph glyph-name="fraction" unicode="&#x2044;" horiz-adv-x="234" 
 />
    <glyph glyph-name="Euro" unicode="&#x20ac;" horiz-adv-x="1385" 
d="M1150 150c-123.333 -46.667 -250 -70 -380 -70c-378.667 0 -593.667 160.667 -645 482h833v90h-843v170h843v90h-833c51.333 292 266.333 438 645 438c130 0 256.667 -23.333 380 -70v100c-123.333 40 -256.666 60 -399.999 60c-500 0 -750 -235 -750 -705
c0 -496.667 250 -745 750 -745c143.333 0 276.666 20 399.999 60v100z" />
    <glyph glyph-name="trademark" unicode="&#x2122;" horiz-adv-x="1606" 
d="M511 1430v-71h-212v-602h-87v602h-212v71h511zM600 757v673h110l248 -561l242 561h106v-673h-78v543l-239 -543h-69l-243 543v-543h-77z" />
    <glyph glyph-name="partialdiff" unicode="&#x2202;" horiz-adv-x="483" 
 />
    <glyph glyph-name="product" unicode="&#x220f;" horiz-adv-x="798" 
 />
    <glyph glyph-name="summation" unicode="&#x2211;" horiz-adv-x="1398" 
 />
    <glyph glyph-name="radical" unicode="&#x221a;" horiz-adv-x="819" 
 />
    <glyph glyph-name="infinity" unicode="&#x221e;" horiz-adv-x="669" 
 />
    <glyph glyph-name="integral" unicode="&#x222b;" horiz-adv-x="1398" 
 />
    <glyph glyph-name="approxequal" unicode="&#x2248;" horiz-adv-x="636" 
 />
    <glyph glyph-name="approxequal" unicode="&#x22f2;" horiz-adv-x="636" 
 />
    <glyph glyph-name="notequal" unicode="&#x2260;" horiz-adv-x="636" 
 />
    <glyph glyph-name="lessequal" unicode="&#x2264;" horiz-adv-x="342" 
 />
    <glyph glyph-name="greaterequal" unicode="&#x2265;" horiz-adv-x="342" 
 />
    <glyph glyph-name="lozenge" unicode="&#x25ca;" horiz-adv-x="243" 
 />
    <glyph glyph-name="apple" unicode="&#xf000;" horiz-adv-x="588" 
 />
    <glyph glyph-name="fi" unicode="&#xf001;" horiz-adv-x="525" 
 />
    <glyph glyph-name="fl" unicode="&#xf002;" horiz-adv-x="480" 
 />
    <glyph glyph-name=".null" horiz-adv-x="0" 
 />
    <glyph glyph-name="nonmarkingreturn" horiz-adv-x="390" 
 />
    </font>
</defs>
</svg>
